<?xml version="1.0" encoding="utf-8"?>
<!-- Generator: Adobe Illustrator 16.0.0, SVG Export Plug-In . SVG Version: 6.00 Build 0)  -->
<!DOCTYPE svg PUBLIC "-//W3C//DTD SVG 1.1//EN" "http://www.w3.org/Graphics/SVG/1.1/DTD/svg11.dtd">
<svg version="1.1" id="Layer_1" xmlns="http://www.w3.org/2000/svg" xmlns:xlink="http://www.w3.org/1999/xlink" x="0px" y="0px"
	 width="1280px" height="720px" viewBox="0 0 1280 720" enable-background="new 0 0 1280 720" xml:space="preserve">
<g>
	<g>
		<path fill="#010101" d="M191.324,171.177c69.052,0,128.796,39.815,157.558,97.734l-39.928-0.012
			c-25.296-38.026-68.533-63.091-117.63-63.091c-77.976,0-141.188,63.212-141.188,141.187c0,77.974,63.211,141.187,141.188,141.187
			c48.819,0,91.849-24.777,117.204-62.443l40.02,0.01c-28.886,57.557-88.437,97.066-157.224,97.066
			c-97.103,0-175.819-78.719-175.819-175.819C15.505,249.894,94.222,171.177,191.324,171.177z"/>
		<path fill="#ED2224" d="M330.902,375.855l56.885-0.223l-31.966,39.957l-39.682,0.063
			C322.938,403.383,327.977,390.008,330.902,375.855z"/>
		<path fill="#F6EB16" d="M333.845,346.995c0-6.742-0.483-13.372-1.394-19.865l92.631-0.115l-31.3,39.959l-61.351,0.035
			C333.355,360.47,333.845,353.791,333.845,346.995z"/>
		<path fill="#010101" d="M316.229,278.498l146.814-0.097l-31.301,39.958l-100.79,0.006
			C328.046,304.189,323.021,290.788,316.229,278.498z"/>
		<g>
			<path fill="#ED2224" d="M232.151,423.432c0,0,35.974,0.314,40.708,0c0,0,5.365,0.314,1.893-7.574l-64.691-166.934
				c0,0-2.211-5.049-8.521-4.733l-29.348-0.014c0,0-4.733,1.276-6.941,7.587l-43.864,114.235c0,0,21.458-39.129,64.692-38.813
				c0,0,33.515-3.426,53.015,21.773c0,0,17.04,20.039-23.983,25.798c0,0-47.651,2.287-61.853,5.76c0,0-40.708,6.313-51.751,36.92
				c0,0-2.21,5.961,4.417,6.135h34.081c0,0,5.679,0.811,8.836-7.713c0,0,5.049-15.461,7.574-21.143l64.376,0.316
				C220.791,395.031,227.732,419.645,232.151,423.432z"/>
		</g>
	</g>
	<g>
		<path d="M557.938,317.343h26.66v106.25h-26.66v-11.23c-5.203,4.948-10.422,8.513-15.656,10.693s-10.908,3.271-17.021,3.271
			c-13.721,0-25.588-5.322-35.604-15.967c-10.014-10.645-15.02-23.877-15.02-39.697c0-16.406,4.845-29.849,14.534-40.332
			c9.689-10.481,21.459-15.723,35.311-15.723c6.373,0,12.354,1.206,17.945,3.613c5.594,2.409,10.764,6.022,15.512,10.84V317.343z
			 M529.913,339.218c-8.242,0-15.088,2.915-20.537,8.74c-5.451,5.827-8.176,13.298-8.176,22.412c0,9.18,2.771,16.733,8.32,22.656
			c5.549,5.925,12.377,8.887,20.488,8.887c8.371,0,15.313-2.913,20.828-8.74c5.514-5.825,8.273-13.46,8.273-22.9
			c0-9.243-2.76-16.731-8.273-22.461C545.321,342.083,538.347,339.218,529.913,339.218z"/>
		<path d="M638.017,276.327v52.734c4.817-4.817,10.025-8.431,15.625-10.84c5.599-2.408,11.588-3.613,17.969-3.613
			c13.867,0,25.65,5.241,35.352,15.723c9.7,10.483,14.551,23.926,14.551,40.332c0,15.82-5.014,29.053-15.039,39.697
			c-10.026,10.645-21.908,15.967-35.645,15.967c-6.12,0-11.816-1.091-17.09-3.271s-10.515-5.745-15.723-10.693v11.23h-26.465
			V276.327H638.017z M666.044,339.218c-8.398,0-15.365,2.866-20.898,8.594c-5.534,5.729-8.301,13.218-8.301,22.461
			c0,9.44,2.767,17.075,8.301,22.9c5.533,5.827,12.5,8.74,20.898,8.74c8.138,0,14.99-2.962,20.557-8.887
			c5.566-5.923,8.35-13.477,8.35-22.656c0-9.114-2.734-16.585-8.203-22.412C681.278,342.132,674.377,339.218,666.044,339.218z"/>
		<path d="M822.001,317.343h26.66v106.25h-26.66v-11.23c-5.203,4.948-10.422,8.513-15.655,10.693
			c-5.235,2.181-10.909,3.271-17.021,3.271c-13.721,0-25.589-5.322-35.604-15.967c-10.014-10.645-15.021-23.877-15.021-39.697
			c0-16.406,4.845-29.849,14.534-40.332c9.689-10.481,21.458-15.723,35.311-15.723c6.372,0,12.354,1.206,17.945,3.613
			c5.593,2.409,10.763,6.022,15.511,10.84V317.343z M793.976,339.218c-8.242,0-15.087,2.915-20.537,8.74
			c-5.45,5.827-8.176,13.298-8.176,22.412c0,9.18,2.772,16.733,8.32,22.656c5.549,5.925,12.377,8.887,20.488,8.887
			c8.371,0,15.313-2.913,20.828-8.74c5.515-5.825,8.273-13.46,8.273-22.9c0-9.243-2.759-16.731-8.273-22.461
			C809.385,342.083,802.41,339.218,793.976,339.218z"/>
		<path d="M979.618,338.827l-22.194,12.207c-4.171-4.361-8.294-7.388-12.368-9.082c-4.074-1.692-8.849-2.539-14.323-2.539
			c-9.974,0-18.041,2.974-24.199,8.922c-6.16,5.948-9.239,13.569-9.239,22.864c0,9.035,2.965,16.415,8.897,22.134
			c5.931,5.721,13.721,8.58,23.367,8.58c11.93,0,21.218-4.067,27.865-12.207l21.022,14.394
			c-11.394,14.819-27.475,22.228-48.242,22.228c-18.686,0-33.317-5.532-43.896-16.602c-10.58-11.067-15.869-24.023-15.869-38.867
			c0-10.286,2.571-19.759,7.715-28.418c5.143-8.658,12.32-15.462,21.533-20.41c9.212-4.947,19.515-7.422,30.908-7.422
			c10.547,0,20.02,2.1,28.418,6.299S974.279,331.08,979.618,338.827z"/>
		<path d="M1003.544,317.343h26.953v51.172c0,9.961,0.686,16.88,2.056,20.752c1.37,3.874,3.573,6.885,6.608,9.033
			c3.033,2.148,6.771,3.223,11.209,3.223c4.438,0,8.206-1.058,11.307-3.174c3.101-2.114,5.4-5.225,6.901-9.326
			c1.109-3.06,1.665-9.603,1.665-19.629v-52.051h26.66v45.02c0,18.555-1.465,31.25-4.395,38.086
			c-3.581,8.335-8.854,14.731-15.82,19.189c-6.967,4.458-15.82,6.689-26.563,6.689c-11.654,0-21.078-2.604-28.271-7.813
			c-7.194-5.208-12.256-12.466-15.186-21.777c-2.084-6.445-3.125-18.164-3.125-35.156V317.343z"/>
		<path d="M1188.7,332.187l-16.504,16.504c-6.706-6.641-12.793-9.961-18.262-9.961c-2.995,0-5.339,0.635-7.031,1.904
			c-1.693,1.27-2.539,2.849-2.539,4.736c0,1.433,0.537,2.751,1.611,3.955c1.074,1.206,3.727,2.849,7.959,4.932l9.766,4.883
			c10.286,5.078,17.35,10.254,21.191,15.527c3.841,5.273,5.762,11.46,5.762,18.555c0,9.44-3.467,17.319-10.4,23.633
			c-6.934,6.315-16.228,9.473-27.881,9.473c-15.495,0-27.865-6.055-37.109-18.164l16.406-17.871
			c3.125,3.647,6.787,6.592,10.986,8.838s7.926,3.369,11.182,3.369c3.516,0,6.348-0.845,8.496-2.539
			c2.148-1.692,3.223-3.646,3.223-5.859c0-4.102-3.874-8.105-11.621-12.012l-8.984-4.492c-17.188-8.657-25.781-19.498-25.781-32.52
			c0-8.398,3.238-15.576,9.717-21.533c6.478-5.957,14.762-8.936,24.854-8.936c6.9,0,13.395,1.514,19.482,4.541
			C1179.309,322.177,1184.468,326.522,1188.7,332.187z"/>
	</g>
</g>
</svg>
